# Blender v2.79 (sub 0) OBJ File: 'googleplay coin.blend'
# www.blender.org
mtllib googleplay coin.mtl
o Cube_Cube.001
v -0.668385 3.354366 0.821551
v 0.050695 1.726855 -1.920623
v -0.670913 0.129959 0.831191
v 0.203173 3.354366 1.050100
v 0.922253 1.726855 -1.692074
v 0.200645 0.129959 1.059739
vt 1.000000 0.496588
vt 0.500000 0.241990
vt 1.000000 0.000000
vt 0.500000 0.496588
vt 0.000000 0.254598
vt 0.500000 0.000000
vt 0.000000 1.000000
vt 0.000000 0.496588
vt 0.159757 0.496588
vt 0.159758 1.000000
vt 0.319515 0.496588
vt 0.479273 0.496588
vt 0.479273 0.993176
vt 0.319515 0.993176
vt 0.319515 0.993742
vt 0.159758 0.993742
vt 0.319515 0.496588
vn -0.9673 0.0000 -0.2537
vn 0.9673 0.0000 0.2537
vn 0.1263 0.8672 -0.4816
vn -0.2537 0.0031 0.9673
vn 0.1242 -0.8720 -0.4735
usemtl Material.001
s off
f 1/1/1 2/2/1 3/3/1
f 6/4/2 5/5/2 4/6/2
f 4/7/3 5/8/3 2/9/3 1/10/3
f 3/11/4 6/12/4 4/13/4 1/14/4
f 6/15/5 3/16/5 2/9/5 5/17/5
