# Blender v2.79 (sub 0) OBJ File: 'w64.blend'
# www.blender.org
mtllib w64.mtl
o Cube.001_Cube.017
v 1.666742 0.764572 -1.114735
v 2.619898 4.058049 -1.115647
v 1.669546 0.764570 1.112499
v 2.622417 4.058049 1.111588
v 0.396349 0.771224 -1.113445
v 1.478570 4.064025 -1.114356
v 0.399153 0.771222 1.113790
v 1.481089 4.064025 1.112879
v 0.343850 0.771512 1.114787
v -0.282860 4.073261 1.115659
v 0.341045 0.771513 -1.112448
v -0.285380 4.073261 -1.111575
v 1.396020 0.766003 1.113496
v 0.640245 4.068428 1.114368
v 1.393216 0.766004 -1.113739
v 0.637726 4.068428 -1.112866
v -1.647302 0.781938 1.115755
v -2.565917 4.085216 1.116628
v -1.650106 0.781939 -1.111480
v -2.568436 4.085216 -1.110607
v -0.376910 0.775286 1.114465
v -1.424590 4.079239 1.115337
v -0.379714 0.775287 -1.112770
v -1.427108 4.079239 -1.111898
v -0.306280 0.774903 -1.112847
v 0.354971 4.069908 -1.113758
v -0.303476 0.774901 1.114388
v 0.357490 4.069908 1.113476
v -1.358451 0.780412 -1.111556
v -0.568135 4.074742 -1.112467
v -1.355647 0.780411 1.115679
v -0.565616 4.074742 1.114767
vn -0.0052 -1.0000 0.0000
vn 0.0011 -0.0001 1.0000
vn -0.0011 0.0001 -1.0000
vn -0.0013 -0.0000 -1.0000
vn 0.0013 0.0000 1.0000
vn -0.0011 -0.0001 -1.0000
vn 0.0011 0.0001 1.0000
vn -0.9500 0.3122 0.0011
vn 0.9748 0.2230 -0.0012
vn 0.9532 0.3022 -0.0011
vn -0.9724 0.2332 0.0012
vn 0.9606 -0.2780 -0.0011
vn -0.9825 -0.1864 0.0012
vn -0.9634 -0.2679 0.0012
vn 0.9805 -0.1967 -0.0012
vn 0.0052 1.0000 -0.0000
usemtl Material.002
s off
f 11//1 15//1 13//1 9//1
f 27//1 31//1 29//1 25//1
usemtl Material.003
f 3//2 4//2 8//2 7//2
f 5//3 6//3 2//3 1//3
f 11//4 12//4 16//4 15//4
f 13//5 14//5 10//5 9//5
f 19//6 20//6 24//6 23//6
f 21//7 22//7 18//7 17//7
f 27//5 28//5 32//5 31//5
f 29//4 30//4 26//4 25//4
usemtl Material.004
f 7//8 8//8 6//8 5//8
f 15//9 16//9 14//9 13//9
f 23//10 24//10 22//10 21//10
f 31//11 32//11 30//11 29//11
usemtl Material.005
f 1//12 2//12 4//12 3//12
f 9//13 10//13 12//13 11//13
f 17//14 18//14 20//14 19//14
f 25//15 26//15 28//15 27//15
usemtl Material.006
f 3//1 7//1 5//1 1//1
f 8//16 4//16 2//16 6//16
f 16//16 12//16 10//16 14//16
f 19//1 23//1 21//1 17//1
f 24//16 20//16 18//16 22//16
f 32//16 28//16 26//16 30//16
